<mxfile host="app.diagrams.net" agent="Mozilla/5.0 (Windows NT 10.0; Win64; x64) AppleWebKit/537.36 (KHTML, like Gecko) Chrome/133.0.0.0 Safari/537.36" version="26.0.16">
  <diagram id="R2lEEEUBdFMjLlhIrx00" name="Page-1">
    <mxGraphModel dx="794" dy="663" grid="1" gridSize="10" guides="1" tooltips="1" connect="1" arrows="1" fold="1" page="1" pageScale="1" pageWidth="850" pageHeight="1100" math="0" shadow="0" extFonts="Permanent Marker^https://fonts.googleapis.com/css?family=Permanent+Marker">
      <root>
        <mxCell id="0" />
        <mxCell id="1" parent="0" />
        <mxCell id="1VaoVHeP2MTb9diUtBoy-65" value="" style="rounded=0;whiteSpace=wrap;html=1;fillColor=none;" parent="1" vertex="1">
          <mxGeometry x="440" y="800" width="290" height="430" as="geometry" />
        </mxCell>
        <mxCell id="3_3b8tCCSucJhdSfP9AF-27" value="PLANETARY SYSTEM" style="rounded=0;whiteSpace=wrap;html=1;" parent="1" vertex="1">
          <mxGeometry x="512.5" y="440" width="120" height="60" as="geometry" />
        </mxCell>
        <mxCell id="3_3b8tCCSucJhdSfP9AF-43" value="CELESTIAL BODY" style="rounded=0;whiteSpace=wrap;html=1;" parent="1" vertex="1">
          <mxGeometry x="512.5" y="630" width="120" height="60" as="geometry" />
        </mxCell>
        <mxCell id="3_3b8tCCSucJhdSfP9AF-45" value="ISA" style="triangle;whiteSpace=wrap;html=1;direction=north;" parent="1" vertex="1">
          <mxGeometry x="532.5" y="707" width="80" height="60" as="geometry" />
        </mxCell>
        <mxCell id="3_3b8tCCSucJhdSfP9AF-48" value="STAR" style="rounded=0;whiteSpace=wrap;html=1;" parent="1" vertex="1">
          <mxGeometry x="880" y="707" width="120" height="60" as="geometry" />
        </mxCell>
        <mxCell id="1VaoVHeP2MTb9diUtBoy-10" style="edgeStyle=orthogonalEdgeStyle;rounded=0;orthogonalLoop=1;jettySize=auto;html=1;exitX=1;exitY=0.5;exitDx=0;exitDy=0;entryX=0;entryY=0.5;entryDx=0;entryDy=0;strokeWidth=4;" parent="1" source="3_3b8tCCSucJhdSfP9AF-49" target="3_3b8tCCSucJhdSfP9AF-52" edge="1">
          <mxGeometry relative="1" as="geometry" />
        </mxCell>
        <mxCell id="3_3b8tCCSucJhdSfP9AF-49" value="EXOPLANET" style="rounded=0;whiteSpace=wrap;html=1;strokeWidth=1;" parent="1" vertex="1">
          <mxGeometry x="512.5" y="890" width="120" height="60" as="geometry" />
        </mxCell>
        <mxCell id="3_3b8tCCSucJhdSfP9AF-51" value="" style="endArrow=none;html=1;rounded=0;entryX=0;entryY=0.5;entryDx=0;entryDy=0;exitX=0.5;exitY=1;exitDx=0;exitDy=0;" parent="1" source="3_3b8tCCSucJhdSfP9AF-45" target="3_3b8tCCSucJhdSfP9AF-48" edge="1">
          <mxGeometry width="50" height="50" relative="1" as="geometry">
            <mxPoint x="700" y="960" as="sourcePoint" />
            <mxPoint x="370" y="880" as="targetPoint" />
            <Array as="points" />
          </mxGeometry>
        </mxCell>
        <mxCell id="3_3b8tCCSucJhdSfP9AF-52" value="ORBITS&lt;br&gt;STAR" style="rhombus;whiteSpace=wrap;html=1;strokeWidth=1;" parent="1" vertex="1">
          <mxGeometry x="785" y="880" width="80" height="80" as="geometry" />
        </mxCell>
        <mxCell id="1VaoVHeP2MTb9diUtBoy-9" style="edgeStyle=orthogonalEdgeStyle;rounded=0;orthogonalLoop=1;jettySize=auto;html=1;exitX=0.5;exitY=1;exitDx=0;exitDy=0;entryX=0.5;entryY=0;entryDx=0;entryDy=0;strokeWidth=4;" parent="1" source="3_3b8tCCSucJhdSfP9AF-55" target="3_3b8tCCSucJhdSfP9AF-57" edge="1">
          <mxGeometry relative="1" as="geometry">
            <mxPoint x="495" y="740.0000000000002" as="targetPoint" />
          </mxGeometry>
        </mxCell>
        <mxCell id="3_3b8tCCSucJhdSfP9AF-55" value="MOON" style="rounded=0;whiteSpace=wrap;html=1;strokeWidth=4;" parent="1" vertex="1">
          <mxGeometry x="235" y="707" width="120" height="60" as="geometry" />
        </mxCell>
        <mxCell id="3_3b8tCCSucJhdSfP9AF-57" value="ORBITS&lt;br&gt;PLANET" style="rhombus;whiteSpace=wrap;html=1;strokeWidth=4;" parent="1" vertex="1">
          <mxGeometry x="255" y="880" width="80" height="80" as="geometry" />
        </mxCell>
        <mxCell id="3_3b8tCCSucJhdSfP9AF-60" value="" style="endArrow=none;html=1;rounded=0;entryX=0;entryY=0.5;entryDx=0;entryDy=0;exitX=1;exitY=0.5;exitDx=0;exitDy=0;" parent="1" source="3_3b8tCCSucJhdSfP9AF-57" target="3_3b8tCCSucJhdSfP9AF-49" edge="1">
          <mxGeometry width="50" height="50" relative="1" as="geometry">
            <mxPoint x="320" y="1100" as="sourcePoint" />
            <mxPoint x="370" y="1050" as="targetPoint" />
          </mxGeometry>
        </mxCell>
        <mxCell id="3_3b8tCCSucJhdSfP9AF-74" value="BIOME" style="rounded=0;whiteSpace=wrap;html=1;" parent="1" vertex="1">
          <mxGeometry x="512.5" y="1100" width="120" height="60" as="geometry" />
        </mxCell>
        <mxCell id="3_3b8tCCSucJhdSfP9AF-75" value="HAS&lt;br&gt;BIOME" style="rhombus;whiteSpace=wrap;html=1;" parent="1" vertex="1">
          <mxGeometry x="532.5" y="1010" width="80" height="80" as="geometry" />
        </mxCell>
        <mxCell id="3_3b8tCCSucJhdSfP9AF-80" value="" style="endArrow=none;html=1;rounded=0;exitX=0.5;exitY=0;exitDx=0;exitDy=0;entryX=0.75;entryY=1;entryDx=0;entryDy=0;" parent="1" source="1VaoVHeP2MTb9diUtBoy-56" target="3_3b8tCCSucJhdSfP9AF-74" edge="1">
          <mxGeometry width="50" height="50" relative="1" as="geometry">
            <mxPoint x="575" y="1240" as="sourcePoint" />
            <mxPoint x="992.5" y="1390" as="targetPoint" />
          </mxGeometry>
        </mxCell>
        <mxCell id="3_3b8tCCSucJhdSfP9AF-87" value="KINGDOM" style="rounded=0;whiteSpace=wrap;html=1;" parent="1" vertex="1">
          <mxGeometry x="765" y="1120" width="120" height="60" as="geometry" />
        </mxCell>
        <mxCell id="3_3b8tCCSucJhdSfP9AF-108" value="&lt;font style=&quot;line-height: 100%;&quot;&gt;Number of Planets&lt;/font&gt;" style="ellipse;whiteSpace=wrap;html=1;spacing=0;fontSize=8;" parent="1" vertex="1">
          <mxGeometry x="620" y="370" width="80" height="40" as="geometry" />
        </mxCell>
        <mxCell id="3_3b8tCCSucJhdSfP9AF-109" value="&lt;font style=&quot;line-height: 100%;&quot;&gt;Number of Stars&lt;/font&gt;" style="ellipse;whiteSpace=wrap;html=1;spacing=0;fontSize=8;" parent="1" vertex="1">
          <mxGeometry x="437.5" y="360" width="80" height="40" as="geometry" />
        </mxCell>
        <mxCell id="3_3b8tCCSucJhdSfP9AF-112" value="" style="endArrow=none;html=1;rounded=0;entryX=0.5;entryY=1;entryDx=0;entryDy=0;exitX=0.25;exitY=0;exitDx=0;exitDy=0;" parent="1" source="3_3b8tCCSucJhdSfP9AF-27" target="3_3b8tCCSucJhdSfP9AF-109" edge="1">
          <mxGeometry width="50" height="50" relative="1" as="geometry">
            <mxPoint x="790" y="740" as="sourcePoint" />
            <mxPoint x="620" y="790" as="targetPoint" />
          </mxGeometry>
        </mxCell>
        <mxCell id="3_3b8tCCSucJhdSfP9AF-113" value="" style="endArrow=none;html=1;rounded=0;entryX=0;entryY=1;entryDx=0;entryDy=0;exitX=0.75;exitY=0;exitDx=0;exitDy=0;" parent="1" source="3_3b8tCCSucJhdSfP9AF-27" target="3_3b8tCCSucJhdSfP9AF-108" edge="1">
          <mxGeometry width="50" height="50" relative="1" as="geometry">
            <mxPoint x="640" y="464" as="sourcePoint" />
            <mxPoint x="620" y="790" as="targetPoint" />
          </mxGeometry>
        </mxCell>
        <mxCell id="3_3b8tCCSucJhdSfP9AF-124" value="&lt;font style=&quot;line-height: 100%;&quot;&gt;Spectral Type&lt;/font&gt;" style="ellipse;whiteSpace=wrap;html=1;spacing=0;fontSize=8;" parent="1" vertex="1">
          <mxGeometry x="880" y="590" width="80" height="40" as="geometry" />
        </mxCell>
        <mxCell id="3_3b8tCCSucJhdSfP9AF-127" value="&lt;font style=&quot;line-height: 100%;&quot;&gt;Radius &lt;br&gt;(number of Suns)&lt;/font&gt;" style="ellipse;whiteSpace=wrap;html=1;spacing=0;fontSize=8;" parent="1" vertex="1">
          <mxGeometry x="990" y="620" width="80" height="40" as="geometry" />
        </mxCell>
        <mxCell id="3_3b8tCCSucJhdSfP9AF-130" value="" style="endArrow=none;html=1;rounded=0;entryX=0.75;entryY=1;entryDx=0;entryDy=0;exitX=0.5;exitY=0;exitDx=0;exitDy=0;" parent="1" source="1VaoVHeP2MTb9diUtBoy-26" target="3_3b8tCCSucJhdSfP9AF-49" edge="1">
          <mxGeometry width="50" height="50" relative="1" as="geometry">
            <mxPoint x="700" y="960" as="sourcePoint" />
            <mxPoint x="590" y="1120" as="targetPoint" />
            <Array as="points" />
          </mxGeometry>
        </mxCell>
        <mxCell id="3_3b8tCCSucJhdSfP9AF-134" value="&lt;font style=&quot;line-height: 100%;&quot;&gt;Radius&lt;br&gt;(number of Earths)&lt;/font&gt;" style="ellipse;whiteSpace=wrap;html=1;spacing=0;fontSize=8;" parent="1" vertex="1">
          <mxGeometry x="482.5" y="810" width="80" height="40" as="geometry" />
        </mxCell>
        <mxCell id="3_3b8tCCSucJhdSfP9AF-135" value="" style="endArrow=none;html=1;rounded=0;entryX=1;entryY=1;entryDx=0;entryDy=0;exitX=0.25;exitY=0;exitDx=0;exitDy=0;" parent="1" source="3_3b8tCCSucJhdSfP9AF-49" target="3_3b8tCCSucJhdSfP9AF-134" edge="1">
          <mxGeometry width="50" height="50" relative="1" as="geometry">
            <mxPoint x="540" y="1060" as="sourcePoint" />
            <mxPoint x="590" y="1010" as="targetPoint" />
          </mxGeometry>
        </mxCell>
        <mxCell id="3_3b8tCCSucJhdSfP9AF-137" value="" style="endArrow=none;html=1;rounded=0;entryX=0.5;entryY=0;entryDx=0;entryDy=0;exitX=0.5;exitY=1;exitDx=0;exitDy=0;" parent="1" source="3_3b8tCCSucJhdSfP9AF-57" target="1VaoVHeP2MTb9diUtBoy-53" edge="1">
          <mxGeometry width="50" height="50" relative="1" as="geometry">
            <mxPoint x="540" y="1110" as="sourcePoint" />
            <mxPoint x="295" y="830.0000000000002" as="targetPoint" />
          </mxGeometry>
        </mxCell>
        <mxCell id="3_3b8tCCSucJhdSfP9AF-139" value="" style="endArrow=none;html=1;rounded=0;exitX=0.25;exitY=0;exitDx=0;exitDy=0;entryX=0.5;entryY=1;entryDx=0;entryDy=0;" parent="1" source="3_3b8tCCSucJhdSfP9AF-55" target="1VaoVHeP2MTb9diUtBoy-43" edge="1">
          <mxGeometry width="50" height="50" relative="1" as="geometry">
            <mxPoint x="780" y="930" as="sourcePoint" />
            <mxPoint x="410" y="650" as="targetPoint" />
          </mxGeometry>
        </mxCell>
        <mxCell id="3_3b8tCCSucJhdSfP9AF-140" value="Gravity Strength" style="ellipse;whiteSpace=wrap;html=1;spacing=0;fontSize=8;fontStyle=0" parent="1" vertex="1">
          <mxGeometry x="470" y="980" width="80" height="40" as="geometry" />
        </mxCell>
        <mxCell id="3_3b8tCCSucJhdSfP9AF-146" value="&lt;u&gt;Biome Type&lt;/u&gt;" style="ellipse;whiteSpace=wrap;html=1;spacing=0;fontSize=8;" parent="1" vertex="1">
          <mxGeometry x="460" y="1180" width="80" height="40" as="geometry" />
        </mxCell>
        <mxCell id="3_3b8tCCSucJhdSfP9AF-148" value="" style="endArrow=none;html=1;rounded=0;entryX=1;entryY=0;entryDx=0;entryDy=0;exitX=0.25;exitY=1;exitDx=0;exitDy=0;" parent="1" source="3_3b8tCCSucJhdSfP9AF-74" target="3_3b8tCCSucJhdSfP9AF-146" edge="1">
          <mxGeometry width="50" height="50" relative="1" as="geometry">
            <mxPoint x="772.5" y="1290" as="sourcePoint" />
            <mxPoint x="822.5" y="1240" as="targetPoint" />
          </mxGeometry>
        </mxCell>
        <mxCell id="5NAUcizy4VVncjoelG-u-10" style="edgeStyle=orthogonalEdgeStyle;rounded=0;orthogonalLoop=1;jettySize=auto;html=1;exitX=1;exitY=0.5;exitDx=0;exitDy=0;" parent="1" edge="1">
          <mxGeometry relative="1" as="geometry">
            <mxPoint x="525" y="1440" as="targetPoint" />
            <mxPoint x="525" y="1440" as="sourcePoint" />
          </mxGeometry>
        </mxCell>
        <mxCell id="3_3b8tCCSucJhdSfP9AF-155" value="Trophic Level" style="ellipse;whiteSpace=wrap;html=1;spacing=0;fontSize=8;" parent="1" vertex="1">
          <mxGeometry x="840" y="1235" width="80" height="40" as="geometry" />
        </mxCell>
        <mxCell id="3_3b8tCCSucJhdSfP9AF-156" value="" style="endArrow=none;html=1;rounded=0;exitX=0.75;exitY=0;exitDx=0;exitDy=0;entryX=0;entryY=0.5;entryDx=0;entryDy=0;" parent="1" source="3_3b8tCCSucJhdSfP9AF-87" target="5ytQT6zgBGJg883eWHq6-3" edge="1">
          <mxGeometry width="50" height="50" relative="1" as="geometry">
            <mxPoint x="610" y="1410" as="sourcePoint" />
            <mxPoint x="695" y="1370" as="targetPoint" />
          </mxGeometry>
        </mxCell>
        <mxCell id="UXuDMvFJDcri6SYYM4VH-30" value="&lt;u&gt;Universal Name&lt;span style=&quot;color: rgba(0, 0, 0, 0); font-family: monospace; font-size: 0px; text-align: start; text-wrap-mode: nowrap;&quot;&gt;%3CmxGraphModel%3E%3Croot%3E%3CmxCell%20id%3D%220%22%2F%3E%3CmxCell%20id%3D%221%22%20parent%3D%220%22%2F%3E%3CmxCell%20id%3D%222%22%20value%3D%22%26lt%3Bfont%20style%3D%26quot%3Bline-height%3A%20100%25%3B%26quot%3B%26gt%3BSpectral%20Luminousity%26lt%3B%2Ffont%26gt%3B%22%20style%3D%22ellipse%3BwhiteSpace%3Dwrap%3Bhtml%3D1%3Bspacing%3D0%3BfontSize%3D8%3B%22%20vertex%3D%221%22%20parent%3D%221%22%3E%3CmxGeometry%20x%3D%22300%22%20y%3D%2220%22%20width%3D%2280%22%20height%3D%2240%22%20as%3D%22geometry%22%2F%3E%3C%2FmxCell%3E%3C%2Froot%3E%3C%2FmxGraphModel%3E&lt;/span&gt;&lt;/u&gt;" style="ellipse;whiteSpace=wrap;html=1;spacing=0;fontSize=8;" parent="1" vertex="1">
          <mxGeometry x="662.5" width="80" height="40" as="geometry" />
        </mxCell>
        <mxCell id="UXuDMvFJDcri6SYYM4VH-31" value="Age" style="ellipse;whiteSpace=wrap;html=1;spacing=0;fontSize=8;" parent="1" vertex="1">
          <mxGeometry x="655" y="50" width="80" height="40" as="geometry" />
        </mxCell>
        <mxCell id="UXuDMvFJDcri6SYYM4VH-60" style="edgeStyle=orthogonalEdgeStyle;rounded=0;orthogonalLoop=1;jettySize=auto;html=1;entryX=0.5;entryY=1;entryDx=0;entryDy=0;exitX=0.5;exitY=0;exitDx=0;exitDy=0;strokeWidth=4;" parent="1" source="UXuDMvFJDcri6SYYM4VH-36" target="UXuDMvFJDcri6SYYM4VH-35" edge="1">
          <mxGeometry relative="1" as="geometry">
            <mxPoint x="705" y="150" as="targetPoint" />
            <mxPoint x="705" y="120" as="sourcePoint" />
          </mxGeometry>
        </mxCell>
        <mxCell id="UXuDMvFJDcri6SYYM4VH-32" value="UNIVERSE" style="rounded=0;whiteSpace=wrap;html=1;" parent="1" vertex="1">
          <mxGeometry x="512.5" y="10" width="120" height="60" as="geometry" />
        </mxCell>
        <mxCell id="UXuDMvFJDcri6SYYM4VH-33" value="" style="endArrow=none;html=1;rounded=0;entryX=0;entryY=0.5;entryDx=0;entryDy=0;exitX=1;exitY=0.25;exitDx=0;exitDy=0;" parent="1" source="UXuDMvFJDcri6SYYM4VH-32" target="UXuDMvFJDcri6SYYM4VH-30" edge="1">
          <mxGeometry width="50" height="50" relative="1" as="geometry">
            <mxPoint x="882.5" y="140" as="sourcePoint" />
            <mxPoint x="664.5" y="24" as="targetPoint" />
          </mxGeometry>
        </mxCell>
        <mxCell id="UXuDMvFJDcri6SYYM4VH-34" value="" style="endArrow=none;html=1;rounded=0;entryX=0;entryY=0;entryDx=0;entryDy=0;exitX=1.007;exitY=0.6;exitDx=0;exitDy=0;exitPerimeter=0;" parent="1" source="UXuDMvFJDcri6SYYM4VH-32" target="UXuDMvFJDcri6SYYM4VH-31" edge="1">
          <mxGeometry width="50" height="50" relative="1" as="geometry">
            <mxPoint x="882.5" y="140" as="sourcePoint" />
            <mxPoint x="672.5" y="70" as="targetPoint" />
          </mxGeometry>
        </mxCell>
        <mxCell id="UXuDMvFJDcri6SYYM4VH-35" value="IS WITHIN" style="rhombus;whiteSpace=wrap;html=1;" parent="1" vertex="1">
          <mxGeometry x="532.5" y="90" width="80" height="80" as="geometry" />
        </mxCell>
        <mxCell id="UXuDMvFJDcri6SYYM4VH-36" value="ASTRONOMICAL OBJECT" style="rounded=0;whiteSpace=wrap;html=1;" parent="1" vertex="1">
          <mxGeometry x="512.5" y="200" width="120" height="60" as="geometry" />
        </mxCell>
        <mxCell id="UXuDMvFJDcri6SYYM4VH-38" value="QUASAR" style="rounded=0;whiteSpace=wrap;html=1;" parent="1" vertex="1">
          <mxGeometry x="810" y="300" width="120" height="60" as="geometry" />
        </mxCell>
        <mxCell id="UXuDMvFJDcri6SYYM4VH-40" value="Spectral Redshift" style="ellipse;whiteSpace=wrap;html=1;spacing=0;fontSize=8;" parent="1" vertex="1">
          <mxGeometry x="840" y="220" width="80" height="40" as="geometry" />
        </mxCell>
        <mxCell id="UXuDMvFJDcri6SYYM4VH-44" value="GALAXY" style="rounded=0;whiteSpace=wrap;html=1;" parent="1" vertex="1">
          <mxGeometry x="240" y="300" width="120" height="60" as="geometry" />
        </mxCell>
        <mxCell id="UXuDMvFJDcri6SYYM4VH-47" value="Variation Type" style="ellipse;whiteSpace=wrap;html=1;spacing=0;fontSize=8;" parent="1" vertex="1">
          <mxGeometry x="80" y="280" width="80" height="40" as="geometry" />
        </mxCell>
        <mxCell id="UXuDMvFJDcri6SYYM4VH-49" value="" style="endArrow=none;html=1;rounded=0;entryX=1;entryY=0.5;entryDx=0;entryDy=0;exitX=-0.005;exitY=0.649;exitDx=0;exitDy=0;exitPerimeter=0;" parent="1" source="UXuDMvFJDcri6SYYM4VH-44" target="UXuDMvFJDcri6SYYM4VH-47" edge="1">
          <mxGeometry width="50" height="50" relative="1" as="geometry">
            <mxPoint x="170" y="530" as="sourcePoint" />
            <mxPoint x="220" y="480" as="targetPoint" />
          </mxGeometry>
        </mxCell>
        <mxCell id="UXuDMvFJDcri6SYYM4VH-52" value="" style="endArrow=none;html=1;rounded=0;entryX=0.5;entryY=1;entryDx=0;entryDy=0;exitX=0.5;exitY=0;exitDx=0;exitDy=0;" parent="1" source="UXuDMvFJDcri6SYYM4VH-38" target="UXuDMvFJDcri6SYYM4VH-40" edge="1">
          <mxGeometry relative="1" as="geometry">
            <mxPoint x="880" y="440" as="sourcePoint" />
            <mxPoint x="880" y="410" as="targetPoint" />
            <Array as="points" />
          </mxGeometry>
        </mxCell>
        <mxCell id="UXuDMvFJDcri6SYYM4VH-54" value="" style="endArrow=none;html=1;rounded=0;entryX=0.5;entryY=1;entryDx=0;entryDy=0;exitX=1;exitY=0.5;exitDx=0;exitDy=0;" parent="1" source="UXuDMvFJDcri6SYYM4VH-44" edge="1">
          <mxGeometry relative="1" as="geometry">
            <mxPoint x="960" y="450" as="sourcePoint" />
            <mxPoint x="592.5" y="330" as="targetPoint" />
          </mxGeometry>
        </mxCell>
        <mxCell id="UXuDMvFJDcri6SYYM4VH-55" value="" style="endArrow=none;html=1;rounded=0;entryX=0.5;entryY=0;entryDx=0;entryDy=0;exitX=0;exitY=0.5;exitDx=0;exitDy=0;" parent="1" target="3_3b8tCCSucJhdSfP9AF-27" edge="1">
          <mxGeometry relative="1" as="geometry">
            <mxPoint x="572.5" y="360" as="sourcePoint" />
            <mxPoint x="570" y="410" as="targetPoint" />
          </mxGeometry>
        </mxCell>
        <mxCell id="UXuDMvFJDcri6SYYM4VH-56" value="" style="endArrow=none;html=1;rounded=0;entryX=0.5;entryY=0;entryDx=0;entryDy=0;exitX=0;exitY=0.5;exitDx=0;exitDy=0;" parent="1" edge="1">
          <mxGeometry relative="1" as="geometry">
            <mxPoint x="572.5" y="360" as="sourcePoint" />
            <mxPoint x="552.5" y="330" as="targetPoint" />
          </mxGeometry>
        </mxCell>
        <mxCell id="UXuDMvFJDcri6SYYM4VH-57" value="" style="endArrow=none;html=1;rounded=0;entryX=0.5;entryY=1;entryDx=0;entryDy=0;exitX=1;exitY=0.5;exitDx=0;exitDy=0;" parent="1" target="UXuDMvFJDcri6SYYM4VH-36" edge="1">
          <mxGeometry relative="1" as="geometry">
            <mxPoint x="572.5" y="300" as="sourcePoint" />
            <mxPoint x="990" y="450" as="targetPoint" />
          </mxGeometry>
        </mxCell>
        <mxCell id="UXuDMvFJDcri6SYYM4VH-58" value="EXISTS INSIDE" style="rhombus;whiteSpace=wrap;html=1;" parent="1" vertex="1">
          <mxGeometry x="260" y="430" width="80" height="80" as="geometry" />
        </mxCell>
        <mxCell id="UXuDMvFJDcri6SYYM4VH-63" value="" style="endArrow=none;html=1;rounded=0;exitX=0.5;exitY=1;exitDx=0;exitDy=0;" parent="1" source="3_3b8tCCSucJhdSfP9AF-27" edge="1">
          <mxGeometry width="50" height="50" relative="1" as="geometry">
            <mxPoint x="525" y="540" as="sourcePoint" />
            <mxPoint x="573" y="520" as="targetPoint" />
          </mxGeometry>
        </mxCell>
        <mxCell id="UXuDMvFJDcri6SYYM4VH-64" value="MEMBER&lt;br&gt;OF" style="rhombus;whiteSpace=wrap;html=1;" parent="1" vertex="1">
          <mxGeometry x="532.5" y="520" width="80" height="80" as="geometry" />
        </mxCell>
        <mxCell id="UXuDMvFJDcri6SYYM4VH-67" value="" style="endArrow=none;html=1;rounded=0;entryX=0;entryY=0.5;entryDx=0;entryDy=0;" parent="1" source="3_3b8tCCSucJhdSfP9AF-49" target="3_3b8tCCSucJhdSfP9AF-45" edge="1">
          <mxGeometry width="50" height="50" relative="1" as="geometry">
            <mxPoint x="340" y="790" as="sourcePoint" />
            <mxPoint x="570" y="800" as="targetPoint" />
          </mxGeometry>
        </mxCell>
        <mxCell id="UXuDMvFJDcri6SYYM4VH-68" value="" style="endArrow=none;html=1;rounded=0;entryX=0.5;entryY=1;entryDx=0;entryDy=0;" parent="1" source="3_3b8tCCSucJhdSfP9AF-45" target="3_3b8tCCSucJhdSfP9AF-43" edge="1">
          <mxGeometry width="50" height="50" relative="1" as="geometry">
            <mxPoint x="573" y="740" as="sourcePoint" />
            <mxPoint x="620" y="690" as="targetPoint" />
          </mxGeometry>
        </mxCell>
        <mxCell id="UXuDMvFJDcri6SYYM4VH-72" value="" style="endArrow=none;html=1;rounded=0;entryX=0.5;entryY=1;entryDx=0;entryDy=0;exitX=0.5;exitY=0;exitDx=0;exitDy=0;" parent="1" source="3_3b8tCCSucJhdSfP9AF-48" target="3_3b8tCCSucJhdSfP9AF-124" edge="1">
          <mxGeometry width="50" height="50" relative="1" as="geometry">
            <mxPoint x="940" y="760" as="sourcePoint" />
            <mxPoint x="1080" y="840" as="targetPoint" />
          </mxGeometry>
        </mxCell>
        <mxCell id="UXuDMvFJDcri6SYYM4VH-73" value="" style="endArrow=none;html=1;rounded=0;entryX=0.5;entryY=1;entryDx=0;entryDy=0;exitX=1;exitY=0;exitDx=0;exitDy=0;" parent="1" source="3_3b8tCCSucJhdSfP9AF-48" target="3_3b8tCCSucJhdSfP9AF-127" edge="1">
          <mxGeometry width="50" height="50" relative="1" as="geometry">
            <mxPoint x="1000" y="888" as="sourcePoint" />
            <mxPoint x="1090" y="850" as="targetPoint" />
          </mxGeometry>
        </mxCell>
        <mxCell id="yWUS_omm38bZTp-P1tU6-4" value="" style="endArrow=none;html=1;rounded=0;entryX=0.5;entryY=1;entryDx=0;entryDy=0;strokeWidth=1;endSize=2;exitX=1;exitY=0.5;exitDx=0;exitDy=0;" parent="1" source="3_3b8tCCSucJhdSfP9AF-52" target="3_3b8tCCSucJhdSfP9AF-48" edge="1">
          <mxGeometry width="50" height="50" relative="1" as="geometry">
            <mxPoint x="900" y="940" as="sourcePoint" />
            <mxPoint x="1020" y="919.7900000000001" as="targetPoint" />
            <Array as="points">
              <mxPoint x="940" y="920" />
            </Array>
          </mxGeometry>
        </mxCell>
        <mxCell id="yWUS_omm38bZTp-P1tU6-6" value="" style="endArrow=none;html=1;rounded=0;entryX=0.5;entryY=0;entryDx=0;entryDy=0;strokeWidth=4;endSize=2;exitX=0.5;exitY=1;exitDx=0;exitDy=0;startArrow=classic;startFill=1;" parent="1" source="UXuDMvFJDcri6SYYM4VH-64" target="3_3b8tCCSucJhdSfP9AF-43" edge="1">
          <mxGeometry width="50" height="50" relative="1" as="geometry">
            <mxPoint x="560" y="600" as="sourcePoint" />
            <mxPoint x="290" y="1158" as="targetPoint" />
          </mxGeometry>
        </mxCell>
        <mxCell id="yWUS_omm38bZTp-P1tU6-11" style="edgeStyle=orthogonalEdgeStyle;rounded=0;orthogonalLoop=1;jettySize=auto;html=1;exitX=0.5;exitY=1;exitDx=0;exitDy=0;" parent="1" source="UXuDMvFJDcri6SYYM4VH-47" target="UXuDMvFJDcri6SYYM4VH-47" edge="1">
          <mxGeometry relative="1" as="geometry" />
        </mxCell>
        <mxCell id="5NAUcizy4VVncjoelG-u-2" value="" style="endArrow=none;html=1;rounded=0;entryX=0.5;entryY=0;entryDx=0;entryDy=0;exitX=0;exitY=0.5;exitDx=0;exitDy=0;" parent="1" source="UXuDMvFJDcri6SYYM4VH-38" edge="1">
          <mxGeometry relative="1" as="geometry">
            <mxPoint x="880" y="330" as="sourcePoint" />
            <mxPoint x="552.5" y="330" as="targetPoint" />
          </mxGeometry>
        </mxCell>
        <mxCell id="5NAUcizy4VVncjoelG-u-3" value="ISA" style="triangle;whiteSpace=wrap;html=1;direction=north;" parent="1" vertex="1">
          <mxGeometry x="532.5" y="300" width="80" height="60" as="geometry" />
        </mxCell>
        <mxCell id="5NAUcizy4VVncjoelG-u-4" value="Total + Disjoint" style="text;html=1;align=center;verticalAlign=middle;whiteSpace=wrap;rounded=0;" parent="1" vertex="1">
          <mxGeometry x="590" y="700" width="60" height="30" as="geometry" />
        </mxCell>
        <mxCell id="5NAUcizy4VVncjoelG-u-5" value="Total + Disjoint" style="text;html=1;align=center;verticalAlign=middle;whiteSpace=wrap;rounded=0;" parent="1" vertex="1">
          <mxGeometry x="590" y="290" width="60" height="30" as="geometry" />
        </mxCell>
        <mxCell id="5NAUcizy4VVncjoelG-u-8" value="" style="endArrow=none;html=1;rounded=0;entryX=0.25;entryY=1;entryDx=0;entryDy=0;exitX=0.5;exitY=0;exitDx=0;exitDy=0;" parent="1" source="3_3b8tCCSucJhdSfP9AF-140" target="3_3b8tCCSucJhdSfP9AF-49" edge="1">
          <mxGeometry width="50" height="50" relative="1" as="geometry">
            <mxPoint x="500" y="1020" as="sourcePoint" />
            <mxPoint x="550" y="970" as="targetPoint" />
          </mxGeometry>
        </mxCell>
        <mxCell id="5ytQT6zgBGJg883eWHq6-3" value="&lt;u&gt;Taxonomy&lt;/u&gt;" style="ellipse;whiteSpace=wrap;html=1;spacing=0;fontSize=8;" parent="1" vertex="1">
          <mxGeometry x="885" y="1040" width="80" height="40" as="geometry" />
        </mxCell>
        <mxCell id="5ytQT6zgBGJg883eWHq6-4" value="Colloquial Genus" style="ellipse;whiteSpace=wrap;html=1;spacing=0;fontSize=8;" parent="1" vertex="1">
          <mxGeometry x="752.5" y="1210" width="80" height="40" as="geometry" />
        </mxCell>
        <mxCell id="5ytQT6zgBGJg883eWHq6-5" value="" style="endArrow=none;html=1;rounded=0;entryX=0.25;entryY=1;entryDx=0;entryDy=0;exitX=0.5;exitY=0;exitDx=0;exitDy=0;" parent="1" source="5ytQT6zgBGJg883eWHq6-4" target="3_3b8tCCSucJhdSfP9AF-87" edge="1">
          <mxGeometry width="50" height="50" relative="1" as="geometry">
            <mxPoint x="567.5" y="1460" as="sourcePoint" />
            <mxPoint x="745" y="1520" as="targetPoint" />
          </mxGeometry>
        </mxCell>
        <mxCell id="5ytQT6zgBGJg883eWHq6-6" value="" style="endArrow=none;html=1;rounded=0;entryX=0.75;entryY=1;entryDx=0;entryDy=0;exitX=0.5;exitY=0;exitDx=0;exitDy=0;" parent="1" source="3_3b8tCCSucJhdSfP9AF-155" target="3_3b8tCCSucJhdSfP9AF-87" edge="1">
          <mxGeometry width="50" height="50" relative="1" as="geometry">
            <mxPoint x="695" y="1570" as="sourcePoint" />
            <mxPoint x="745" y="1520" as="targetPoint" />
          </mxGeometry>
        </mxCell>
        <mxCell id="1VaoVHeP2MTb9diUtBoy-1" value="" style="endArrow=classic;html=1;rounded=0;exitX=0;exitY=0.5;exitDx=0;exitDy=0;strokeWidth=4;entryX=1;entryY=0.5;entryDx=0;entryDy=0;" parent="1" source="3_3b8tCCSucJhdSfP9AF-27" target="UXuDMvFJDcri6SYYM4VH-58" edge="1">
          <mxGeometry width="50" height="50" relative="1" as="geometry">
            <mxPoint x="510" y="410" as="sourcePoint" />
            <mxPoint x="310" y="470" as="targetPoint" />
          </mxGeometry>
        </mxCell>
        <mxCell id="1VaoVHeP2MTb9diUtBoy-5" value="" style="endArrow=none;html=1;rounded=0;exitX=0.5;exitY=0;exitDx=0;exitDy=0;entryX=0.5;entryY=1;entryDx=0;entryDy=0;" parent="1" source="UXuDMvFJDcri6SYYM4VH-58" target="UXuDMvFJDcri6SYYM4VH-44" edge="1">
          <mxGeometry width="50" height="50" relative="1" as="geometry">
            <mxPoint x="580" y="410" as="sourcePoint" />
            <mxPoint x="630" y="360" as="targetPoint" />
          </mxGeometry>
        </mxCell>
        <mxCell id="1VaoVHeP2MTb9diUtBoy-7" value="" style="endArrow=none;html=1;rounded=0;entryX=0.5;entryY=1;entryDx=0;entryDy=0;exitX=0.5;exitY=0;exitDx=0;exitDy=0;" parent="1" source="UXuDMvFJDcri6SYYM4VH-35" target="UXuDMvFJDcri6SYYM4VH-32" edge="1">
          <mxGeometry width="50" height="50" relative="1" as="geometry">
            <mxPoint x="573" y="100" as="sourcePoint" />
            <mxPoint x="630" y="140" as="targetPoint" />
          </mxGeometry>
        </mxCell>
        <mxCell id="1VaoVHeP2MTb9diUtBoy-11" value="" style="endArrow=none;html=1;rounded=0;entryX=0.5;entryY=1;entryDx=0;entryDy=0;exitX=0.5;exitY=0;exitDx=0;exitDy=0;" parent="1" source="3_3b8tCCSucJhdSfP9AF-75" target="3_3b8tCCSucJhdSfP9AF-49" edge="1">
          <mxGeometry width="50" height="50" relative="1" as="geometry">
            <mxPoint x="470" y="1140" as="sourcePoint" />
            <mxPoint x="520" y="1090" as="targetPoint" />
          </mxGeometry>
        </mxCell>
        <mxCell id="1VaoVHeP2MTb9diUtBoy-12" value="&lt;font style=&quot;line-height: 100%;&quot;&gt;Orbital Period&lt;br&gt;(number of days)&lt;/font&gt;" style="ellipse;whiteSpace=wrap;html=1;spacing=0;fontSize=8;" parent="1" vertex="1">
          <mxGeometry x="785" y="800" width="80" height="40" as="geometry" />
        </mxCell>
        <mxCell id="1VaoVHeP2MTb9diUtBoy-13" value="" style="endArrow=none;html=1;rounded=0;entryX=0.5;entryY=1;entryDx=0;entryDy=0;exitX=0.5;exitY=0;exitDx=0;exitDy=0;" parent="1" source="3_3b8tCCSucJhdSfP9AF-52" target="1VaoVHeP2MTb9diUtBoy-12" edge="1">
          <mxGeometry width="50" height="50" relative="1" as="geometry">
            <mxPoint x="660" y="810" as="sourcePoint" />
            <mxPoint x="710" y="760" as="targetPoint" />
          </mxGeometry>
        </mxCell>
        <mxCell id="1VaoVHeP2MTb9diUtBoy-14" value="&lt;font style=&quot;line-height: 100%;&quot;&gt;Duration of a day (hours)&lt;/font&gt;" style="ellipse;whiteSpace=wrap;html=1;spacing=0;fontSize=8;" parent="1" vertex="1">
          <mxGeometry x="575" y="810" width="80" height="40" as="geometry" />
        </mxCell>
        <mxCell id="1VaoVHeP2MTb9diUtBoy-16" value="" style="endArrow=none;html=1;rounded=0;entryX=0.5;entryY=1;entryDx=0;entryDy=0;exitX=0.75;exitY=0;exitDx=0;exitDy=0;" parent="1" source="3_3b8tCCSucJhdSfP9AF-49" target="1VaoVHeP2MTb9diUtBoy-14" edge="1">
          <mxGeometry width="50" height="50" relative="1" as="geometry">
            <mxPoint x="660" y="810" as="sourcePoint" />
            <mxPoint x="710" y="760" as="targetPoint" />
          </mxGeometry>
        </mxCell>
        <mxCell id="1VaoVHeP2MTb9diUtBoy-18" value="&lt;font style=&quot;line-height: 100%;&quot;&gt;Elemental Composition&lt;/font&gt;" style="ellipse;whiteSpace=wrap;html=1;spacing=0;fontSize=8;" parent="1" vertex="1">
          <mxGeometry x="1050" y="730" width="80" height="40" as="geometry" />
        </mxCell>
        <mxCell id="1VaoVHeP2MTb9diUtBoy-19" value="" style="endArrow=none;html=1;rounded=0;entryX=0;entryY=0.5;entryDx=0;entryDy=0;exitX=1;exitY=0.5;exitDx=0;exitDy=0;" parent="1" source="3_3b8tCCSucJhdSfP9AF-48" target="1VaoVHeP2MTb9diUtBoy-18" edge="1">
          <mxGeometry width="50" height="50" relative="1" as="geometry">
            <mxPoint x="660" y="700" as="sourcePoint" />
            <mxPoint x="710" y="650" as="targetPoint" />
          </mxGeometry>
        </mxCell>
        <mxCell id="1VaoVHeP2MTb9diUtBoy-20" value="&lt;font style=&quot;line-height: 100%;&quot;&gt;Radius&lt;br&gt;(number of Earth Moons)&lt;/font&gt;" style="ellipse;whiteSpace=wrap;html=1;spacing=0;fontSize=8;" parent="1" vertex="1">
          <mxGeometry x="270" y="620" width="80" height="40" as="geometry" />
        </mxCell>
        <mxCell id="1VaoVHeP2MTb9diUtBoy-21" value="" style="endArrow=none;html=1;rounded=0;entryX=0.5;entryY=1;entryDx=0;entryDy=0;exitX=0.5;exitY=0;exitDx=0;exitDy=0;" parent="1" source="3_3b8tCCSucJhdSfP9AF-55" target="1VaoVHeP2MTb9diUtBoy-20" edge="1">
          <mxGeometry width="50" height="50" relative="1" as="geometry">
            <mxPoint x="340" y="720" as="sourcePoint" />
            <mxPoint x="440" y="630" as="targetPoint" />
          </mxGeometry>
        </mxCell>
        <mxCell id="1VaoVHeP2MTb9diUtBoy-22" value="&lt;font style=&quot;line-height: 100%;&quot;&gt;Tidal Locking &lt;br&gt;(True or False)&lt;/font&gt;" style="ellipse;whiteSpace=wrap;html=1;spacing=0;fontSize=8;" parent="1" vertex="1">
          <mxGeometry x="170" y="800" width="80" height="40" as="geometry" />
        </mxCell>
        <mxCell id="1VaoVHeP2MTb9diUtBoy-23" value="" style="endArrow=none;html=1;rounded=0;entryX=0.25;entryY=1;entryDx=0;entryDy=0;exitX=1;exitY=0;exitDx=0;exitDy=0;" parent="1" source="1VaoVHeP2MTb9diUtBoy-22" target="3_3b8tCCSucJhdSfP9AF-55" edge="1">
          <mxGeometry width="50" height="50" relative="1" as="geometry">
            <mxPoint x="300" y="820" as="sourcePoint" />
            <mxPoint x="299.75" y="790" as="targetPoint" />
          </mxGeometry>
        </mxCell>
        <mxCell id="1VaoVHeP2MTb9diUtBoy-24" value="&lt;font style=&quot;line-height: 100%;&quot;&gt;Core Composition&lt;/font&gt;" style="ellipse;whiteSpace=wrap;html=1;spacing=0;fontSize=8;" parent="1" vertex="1">
          <mxGeometry x="335" y="790" width="80" height="40" as="geometry" />
        </mxCell>
        <mxCell id="1VaoVHeP2MTb9diUtBoy-25" value="" style="endArrow=none;html=1;rounded=0;entryX=0.75;entryY=1;entryDx=0;entryDy=0;exitX=0;exitY=0;exitDx=0;exitDy=0;" parent="1" source="1VaoVHeP2MTb9diUtBoy-24" target="3_3b8tCCSucJhdSfP9AF-55" edge="1">
          <mxGeometry width="50" height="50" relative="1" as="geometry">
            <mxPoint x="310" y="830" as="sourcePoint" />
            <mxPoint x="310" y="780" as="targetPoint" />
          </mxGeometry>
        </mxCell>
        <mxCell id="1VaoVHeP2MTb9diUtBoy-26" value="Planetary Type" style="ellipse;whiteSpace=wrap;html=1;spacing=0;fontSize=8;fontStyle=0" parent="1" vertex="1">
          <mxGeometry x="582.5" y="980" width="80" height="40" as="geometry" />
        </mxCell>
        <mxCell id="1VaoVHeP2MTb9diUtBoy-27" value="Foliage Density" style="ellipse;whiteSpace=wrap;html=1;spacing=0;fontSize=8;" parent="1" vertex="1">
          <mxGeometry x="650" y="1090" width="80" height="40" as="geometry" />
        </mxCell>
        <mxCell id="1VaoVHeP2MTb9diUtBoy-28" value="" style="endArrow=none;html=1;rounded=0;entryX=0;entryY=1;entryDx=0;entryDy=0;exitX=1;exitY=0.5;exitDx=0;exitDy=0;" parent="1" source="3_3b8tCCSucJhdSfP9AF-74" target="1VaoVHeP2MTb9diUtBoy-27" edge="1">
          <mxGeometry width="50" height="50" relative="1" as="geometry">
            <mxPoint x="702.5" y="1230" as="sourcePoint" />
            <mxPoint x="752.5" y="1180" as="targetPoint" />
          </mxGeometry>
        </mxCell>
        <mxCell id="1VaoVHeP2MTb9diUtBoy-29" value="Expansionary Rate&amp;nbsp;&lt;br&gt;(light-years)" style="ellipse;whiteSpace=wrap;html=1;spacing=0;fontSize=8;" parent="1" vertex="1">
          <mxGeometry x="390" y="60" width="80" height="40" as="geometry" />
        </mxCell>
        <mxCell id="1VaoVHeP2MTb9diUtBoy-30" value="" style="endArrow=none;html=1;rounded=0;entryX=0;entryY=0.75;entryDx=0;entryDy=0;exitX=1;exitY=0.5;exitDx=0;exitDy=0;" parent="1" source="1VaoVHeP2MTb9diUtBoy-29" target="UXuDMvFJDcri6SYYM4VH-32" edge="1">
          <mxGeometry width="50" height="50" relative="1" as="geometry">
            <mxPoint x="580" y="200" as="sourcePoint" />
            <mxPoint x="630" y="150" as="targetPoint" />
          </mxGeometry>
        </mxCell>
        <mxCell id="1VaoVHeP2MTb9diUtBoy-31" value="Radius&lt;br&gt;&amp;nbsp;(thousands of light-years)" style="ellipse;whiteSpace=wrap;html=1;spacing=0;fontSize=8;" parent="1" vertex="1">
          <mxGeometry x="180" y="410" width="80" height="40" as="geometry" />
        </mxCell>
        <mxCell id="1VaoVHeP2MTb9diUtBoy-33" value="" style="endArrow=none;html=1;rounded=0;exitX=0.5;exitY=0;exitDx=0;exitDy=0;entryX=0.25;entryY=1;entryDx=0;entryDy=0;" parent="1" source="1VaoVHeP2MTb9diUtBoy-31" target="UXuDMvFJDcri6SYYM4VH-44" edge="1">
          <mxGeometry width="50" height="50" relative="1" as="geometry">
            <mxPoint x="280" y="370" as="sourcePoint" />
            <mxPoint x="330" y="320" as="targetPoint" />
          </mxGeometry>
        </mxCell>
        <mxCell id="1VaoVHeP2MTb9diUtBoy-34" value="Constellation" style="ellipse;whiteSpace=wrap;html=1;spacing=0;fontSize=8;" parent="1" vertex="1">
          <mxGeometry x="235" y="220" width="80" height="40" as="geometry" />
        </mxCell>
        <mxCell id="1VaoVHeP2MTb9diUtBoy-35" value="" style="endArrow=none;html=1;rounded=0;entryX=0.5;entryY=1;entryDx=0;entryDy=0;exitX=0.5;exitY=0;exitDx=0;exitDy=0;" parent="1" source="UXuDMvFJDcri6SYYM4VH-44" target="1VaoVHeP2MTb9diUtBoy-34" edge="1">
          <mxGeometry width="50" height="50" relative="1" as="geometry">
            <mxPoint x="250" y="325" as="sourcePoint" />
            <mxPoint x="190" y="290" as="targetPoint" />
          </mxGeometry>
        </mxCell>
        <mxCell id="1VaoVHeP2MTb9diUtBoy-38" value="Luminosity&lt;br&gt;(trillions of sols)" style="ellipse;whiteSpace=wrap;html=1;spacing=0;fontSize=8;" parent="1" vertex="1">
          <mxGeometry x="900" y="400" width="80" height="40" as="geometry" />
        </mxCell>
        <mxCell id="1VaoVHeP2MTb9diUtBoy-39" value="" style="endArrow=none;html=1;rounded=0;entryX=0.5;entryY=0;entryDx=0;entryDy=0;exitX=0.75;exitY=1;exitDx=0;exitDy=0;" parent="1" source="UXuDMvFJDcri6SYYM4VH-38" target="1VaoVHeP2MTb9diUtBoy-38" edge="1">
          <mxGeometry relative="1" as="geometry">
            <mxPoint x="940" y="340" as="sourcePoint" />
            <mxPoint x="990" y="340" as="targetPoint" />
            <Array as="points" />
          </mxGeometry>
        </mxCell>
        <mxCell id="1VaoVHeP2MTb9diUtBoy-43" value="&lt;div style=&quot;border-bottom: 1px dotted black;&quot;&gt;Lunar Name&lt;/div&gt;" style="ellipse;whiteSpace=wrap;html=1;spacing=0;fontSize=8;" parent="1" vertex="1">
          <mxGeometry x="170" y="640" width="80" height="40" as="geometry" />
        </mxCell>
        <mxCell id="1VaoVHeP2MTb9diUtBoy-45" value="&lt;font style=&quot;line-height: 100%;&quot;&gt;Radius&amp;nbsp;&lt;br&gt;(astronomical units)&lt;/font&gt;" style="ellipse;whiteSpace=wrap;html=1;spacing=0;fontSize=8;" parent="1" vertex="1">
          <mxGeometry x="450" y="520" width="80" height="40" as="geometry" />
        </mxCell>
        <mxCell id="1VaoVHeP2MTb9diUtBoy-46" value="" style="endArrow=none;html=1;rounded=0;exitX=1;exitY=0;exitDx=0;exitDy=0;entryX=0.25;entryY=1;entryDx=0;entryDy=0;" parent="1" source="1VaoVHeP2MTb9diUtBoy-45" target="3_3b8tCCSucJhdSfP9AF-27" edge="1">
          <mxGeometry width="50" height="50" relative="1" as="geometry">
            <mxPoint x="540" y="580" as="sourcePoint" />
            <mxPoint x="590" y="530" as="targetPoint" />
          </mxGeometry>
        </mxCell>
        <mxCell id="1VaoVHeP2MTb9diUtBoy-52" value="" style="endArrow=none;html=1;rounded=0;entryX=0;entryY=0;entryDx=0;entryDy=0;exitX=0.75;exitY=1;exitDx=0;exitDy=0;" parent="1" source="3_3b8tCCSucJhdSfP9AF-48" target="iLbKqsB4IGKukoz0OzzT-16" edge="1">
          <mxGeometry width="50" height="50" relative="1" as="geometry">
            <mxPoint x="477.5" y="620" as="sourcePoint" />
            <mxPoint x="388.75" y="670" as="targetPoint" />
          </mxGeometry>
        </mxCell>
        <mxCell id="1VaoVHeP2MTb9diUtBoy-53" value="&lt;font style=&quot;line-height: 100%;&quot;&gt;Orbital Period&amp;nbsp;&lt;br&gt;(number of days)&lt;/font&gt;" style="ellipse;whiteSpace=wrap;html=1;spacing=0;fontSize=8;" parent="1" vertex="1">
          <mxGeometry x="255" y="1010" width="80" height="40" as="geometry" />
        </mxCell>
        <mxCell id="1VaoVHeP2MTb9diUtBoy-56" value="Average Temperature&lt;br&gt;(degrees Celcius)" style="ellipse;whiteSpace=wrap;html=1;spacing=0;fontSize=8;" parent="1" vertex="1">
          <mxGeometry x="600" y="1180" width="80" height="40" as="geometry" />
        </mxCell>
        <mxCell id="1VaoVHeP2MTb9diUtBoy-58" value="" style="endArrow=none;html=1;rounded=0;exitX=0.5;exitY=0;exitDx=0;exitDy=0;entryX=0.5;entryY=1;entryDx=0;entryDy=0;" parent="1" source="3_3b8tCCSucJhdSfP9AF-87" target="1VaoVHeP2MTb9diUtBoy-62" edge="1">
          <mxGeometry width="50" height="50" relative="1" as="geometry">
            <mxPoint x="124.25" y="1350" as="sourcePoint" />
            <mxPoint x="179.25" y="1320" as="targetPoint" />
          </mxGeometry>
        </mxCell>
        <mxCell id="1VaoVHeP2MTb9diUtBoy-62" value="HAS&lt;br&gt;KINGDOM" style="rhombus;whiteSpace=wrap;html=1;" parent="1" vertex="1">
          <mxGeometry x="785" y="1010" width="80" height="80" as="geometry" />
        </mxCell>
        <mxCell id="1VaoVHeP2MTb9diUtBoy-64" value="" style="endArrow=none;html=1;rounded=0;entryX=0.5;entryY=1;entryDx=0;entryDy=0;exitX=0.5;exitY=0;exitDx=0;exitDy=0;" parent="1" source="3_3b8tCCSucJhdSfP9AF-74" target="3_3b8tCCSucJhdSfP9AF-75" edge="1">
          <mxGeometry width="50" height="50" relative="1" as="geometry">
            <mxPoint x="583" y="1020" as="sourcePoint" />
            <mxPoint x="583" y="960" as="targetPoint" />
          </mxGeometry>
        </mxCell>
        <mxCell id="1VaoVHeP2MTb9diUtBoy-66" value="" style="endArrow=none;html=1;rounded=0;exitX=0;exitY=0.5;exitDx=0;exitDy=0;entryX=1;entryY=0.5;entryDx=0;entryDy=0;" parent="1" source="1VaoVHeP2MTb9diUtBoy-62" target="3_3b8tCCSucJhdSfP9AF-75" edge="1">
          <mxGeometry width="50" height="50" relative="1" as="geometry">
            <mxPoint x="583" y="1200" as="sourcePoint" />
            <mxPoint x="583" y="1180" as="targetPoint" />
          </mxGeometry>
        </mxCell>
        <mxCell id="1VaoVHeP2MTb9diUtBoy-67" value="ECOSYSTEM" style="text;html=1;align=center;verticalAlign=middle;whiteSpace=wrap;rounded=0;" parent="1" vertex="1">
          <mxGeometry x="600" y="770" width="125" height="30" as="geometry" />
        </mxCell>
        <mxCell id="mkJmCp2IvoHp2jIDGKGI-1" value="Number of Unique Alleles" style="ellipse;whiteSpace=wrap;html=1;spacing=0;fontSize=8;" parent="1" vertex="1">
          <mxGeometry x="850" y="970" width="80" height="40" as="geometry" />
        </mxCell>
        <mxCell id="mkJmCp2IvoHp2jIDGKGI-2" value="" style="endArrow=none;html=1;rounded=0;entryX=0;entryY=1;entryDx=0;entryDy=0;exitX=1;exitY=0;exitDx=0;exitDy=0;" parent="1" source="1VaoVHeP2MTb9diUtBoy-62" target="mkJmCp2IvoHp2jIDGKGI-1" edge="1">
          <mxGeometry width="50" height="50" relative="1" as="geometry">
            <mxPoint x="850" y="1030" as="sourcePoint" />
            <mxPoint x="820" y="1030" as="targetPoint" />
          </mxGeometry>
        </mxCell>
        <mxCell id="iLbKqsB4IGKukoz0OzzT-2" value="" style="endArrow=none;html=1;rounded=0;entryX=0;entryY=1;entryDx=0;entryDy=0;exitX=1;exitY=0.25;exitDx=0;exitDy=0;" parent="1" source="3_3b8tCCSucJhdSfP9AF-43" target="iLbKqsB4IGKukoz0OzzT-3" edge="1">
          <mxGeometry width="50" height="50" relative="1" as="geometry">
            <mxPoint x="680" y="637" as="sourcePoint" />
            <mxPoint x="680.0000000000043" y="660.0000000000002" as="targetPoint" />
          </mxGeometry>
        </mxCell>
        <mxCell id="iLbKqsB4IGKukoz0OzzT-3" value="&lt;font style=&quot;line-height: 100%;&quot;&gt;Discovery Year&lt;/font&gt;" style="ellipse;whiteSpace=wrap;html=1;spacing=0;fontSize=8;" parent="1" vertex="1">
          <mxGeometry x="662.5" y="580" width="80" height="40" as="geometry" />
        </mxCell>
        <mxCell id="iLbKqsB4IGKukoz0OzzT-12" value="&lt;font style=&quot;line-height: 100%;&quot;&gt;&lt;u&gt;Celestial Name&lt;/u&gt;&lt;/font&gt;" style="ellipse;whiteSpace=wrap;html=1;spacing=0;fontSize=8;" parent="1" vertex="1">
          <mxGeometry x="415" y="640" width="80" height="40" as="geometry" />
        </mxCell>
        <mxCell id="iLbKqsB4IGKukoz0OzzT-13" value="" style="endArrow=none;html=1;rounded=0;entryX=0;entryY=0.5;entryDx=0;entryDy=0;exitX=1;exitY=0.5;exitDx=0;exitDy=0;" parent="1" source="iLbKqsB4IGKukoz0OzzT-12" target="3_3b8tCCSucJhdSfP9AF-43" edge="1">
          <mxGeometry width="50" height="50" relative="1" as="geometry">
            <mxPoint x="488" y="630" as="sourcePoint" />
            <mxPoint x="523" y="655" as="targetPoint" />
          </mxGeometry>
        </mxCell>
        <mxCell id="iLbKqsB4IGKukoz0OzzT-16" value="&lt;font style=&quot;line-height: 100%;&quot;&gt;Galactic Host&lt;/font&gt;" style="ellipse;whiteSpace=wrap;html=1;spacing=0;fontSize=8;" parent="1" vertex="1">
          <mxGeometry x="970" y="790" width="80" height="40" as="geometry" />
        </mxCell>
        <mxCell id="iLbKqsB4IGKukoz0OzzT-17" value="Has a Biosphere&lt;br&gt;(True or False)" style="ellipse;whiteSpace=wrap;html=1;spacing=0;fontSize=8;fontStyle=0" parent="1" vertex="1">
          <mxGeometry x="440" y="850" width="80" height="40" as="geometry" />
        </mxCell>
        <mxCell id="iLbKqsB4IGKukoz0OzzT-18" value="" style="endArrow=none;html=1;rounded=0;entryX=0;entryY=0.25;entryDx=0;entryDy=0;exitX=0.5;exitY=1;exitDx=0;exitDy=0;" parent="1" source="iLbKqsB4IGKukoz0OzzT-17" target="3_3b8tCCSucJhdSfP9AF-49" edge="1">
          <mxGeometry width="50" height="50" relative="1" as="geometry">
            <mxPoint x="520" y="990" as="sourcePoint" />
            <mxPoint x="553" y="960" as="targetPoint" />
          </mxGeometry>
        </mxCell>
        <mxCell id="8nlhbwQY0gBJnr9oH5zO-2" value="Central Object" style="ellipse;whiteSpace=wrap;html=1;spacing=0;fontSize=8;" parent="1" vertex="1">
          <mxGeometry x="80" y="380" width="80" height="40" as="geometry" />
        </mxCell>
        <mxCell id="8nlhbwQY0gBJnr9oH5zO-5" style="edgeStyle=none;curved=1;rounded=0;orthogonalLoop=1;jettySize=auto;html=1;exitX=0;exitY=1;exitDx=0;exitDy=0;entryX=0.75;entryY=0;entryDx=0;entryDy=0;fontSize=12;startSize=8;endSize=8;endArrow=none;startFill=0;" parent="1" source="8nlhbwQY0gBJnr9oH5zO-3" target="UXuDMvFJDcri6SYYM4VH-44" edge="1">
          <mxGeometry relative="1" as="geometry" />
        </mxCell>
        <mxCell id="8nlhbwQY0gBJnr9oH5zO-3" value="Star Count" style="ellipse;whiteSpace=wrap;html=1;spacing=0;fontSize=8;" parent="1" vertex="1">
          <mxGeometry x="345" y="220" width="80" height="40" as="geometry" />
        </mxCell>
        <mxCell id="8nlhbwQY0gBJnr9oH5zO-6" style="edgeStyle=none;curved=1;rounded=0;orthogonalLoop=1;jettySize=auto;html=1;exitX=1;exitY=0;exitDx=0;exitDy=0;entryX=0;entryY=1;entryDx=0;entryDy=0;fontSize=12;startSize=8;endSize=8;endArrow=none;startFill=0;" parent="1" source="8nlhbwQY0gBJnr9oH5zO-2" target="UXuDMvFJDcri6SYYM4VH-44" edge="1">
          <mxGeometry relative="1" as="geometry" />
        </mxCell>
        <mxCell id="8nlhbwQY0gBJnr9oH5zO-8" style="edgeStyle=none;curved=1;rounded=0;orthogonalLoop=1;jettySize=auto;html=1;exitX=0;exitY=0.5;exitDx=0;exitDy=0;entryX=1;entryY=0.5;entryDx=0;entryDy=0;fontSize=12;startSize=8;endSize=8;endArrow=none;startFill=0;" parent="1" source="8nlhbwQY0gBJnr9oH5zO-7" target="UXuDMvFJDcri6SYYM4VH-38" edge="1">
          <mxGeometry relative="1" as="geometry" />
        </mxCell>
        <mxCell id="8nlhbwQY0gBJnr9oH5zO-7" value="Black Hole Mass" style="ellipse;whiteSpace=wrap;html=1;spacing=0;fontSize=8;" parent="1" vertex="1">
          <mxGeometry x="970" y="310" width="80" height="40" as="geometry" />
        </mxCell>
        <mxCell id="8nlhbwQY0gBJnr9oH5zO-14" style="edgeStyle=none;curved=1;rounded=0;orthogonalLoop=1;jettySize=auto;html=1;exitX=0;exitY=0.5;exitDx=0;exitDy=0;entryX=1;entryY=0;entryDx=0;entryDy=0;fontSize=12;startSize=8;endSize=8;endArrow=none;startFill=0;" parent="1" source="8nlhbwQY0gBJnr9oH5zO-9" target="3_3b8tCCSucJhdSfP9AF-87" edge="1">
          <mxGeometry relative="1" as="geometry" />
        </mxCell>
        <mxCell id="8nlhbwQY0gBJnr9oH5zO-9" value="Lifespan" style="ellipse;whiteSpace=wrap;html=1;spacing=0;fontSize=8;" parent="1" vertex="1">
          <mxGeometry x="920" y="1090" width="80" height="40" as="geometry" />
        </mxCell>
        <mxCell id="8nlhbwQY0gBJnr9oH5zO-15" style="edgeStyle=none;curved=1;rounded=0;orthogonalLoop=1;jettySize=auto;html=1;exitX=0;exitY=0.5;exitDx=0;exitDy=0;entryX=1;entryY=0.5;entryDx=0;entryDy=0;fontSize=12;startSize=8;endSize=8;endArrow=none;startFill=0;" parent="1" source="8nlhbwQY0gBJnr9oH5zO-10" target="3_3b8tCCSucJhdSfP9AF-87" edge="1">
          <mxGeometry relative="1" as="geometry" />
        </mxCell>
        <mxCell id="8nlhbwQY0gBJnr9oH5zO-10" value="Species Count" style="ellipse;whiteSpace=wrap;html=1;spacing=0;fontSize=8;" parent="1" vertex="1">
          <mxGeometry x="940" y="1140" width="80" height="40" as="geometry" />
        </mxCell>
        <mxCell id="8nlhbwQY0gBJnr9oH5zO-16" style="edgeStyle=none;curved=1;rounded=0;orthogonalLoop=1;jettySize=auto;html=1;exitX=0;exitY=0.5;exitDx=0;exitDy=0;entryX=1;entryY=1;entryDx=0;entryDy=0;fontSize=12;startSize=8;endSize=8;endArrow=none;startFill=0;" parent="1" source="8nlhbwQY0gBJnr9oH5zO-11" target="3_3b8tCCSucJhdSfP9AF-87" edge="1">
          <mxGeometry relative="1" as="geometry" />
        </mxCell>
        <mxCell id="8nlhbwQY0gBJnr9oH5zO-11" value="Reproduction Type" style="ellipse;whiteSpace=wrap;html=1;spacing=0;fontSize=8;" parent="1" vertex="1">
          <mxGeometry x="940" y="1200" width="80" height="40" as="geometry" />
        </mxCell>
        <mxCell id="FxnmqVuGMxXNiR06IBqI-6" style="edgeStyle=none;curved=1;rounded=0;orthogonalLoop=1;jettySize=auto;html=1;exitX=1;exitY=0.5;exitDx=0;exitDy=0;entryX=0;entryY=0.5;entryDx=0;entryDy=0;fontSize=12;startSize=8;endSize=8;endArrow=none;startFill=0;" parent="1" source="FxnmqVuGMxXNiR06IBqI-4" target="3_3b8tCCSucJhdSfP9AF-55" edge="1">
          <mxGeometry relative="1" as="geometry" />
        </mxCell>
        <mxCell id="FxnmqVuGMxXNiR06IBqI-4" value="Discovery Year" style="ellipse;whiteSpace=wrap;html=1;spacing=0;fontSize=8;" parent="1" vertex="1">
          <mxGeometry x="120" y="707" width="80" height="40" as="geometry" />
        </mxCell>
        <mxCell id="ro3Qv43nntxOIZV2XcsF-1" value="&lt;u&gt;Astronomical name.&lt;/u&gt;" style="ellipse;whiteSpace=wrap;html=1;spacing=0;fontSize=8;" vertex="1" parent="1">
          <mxGeometry x="655" y="160" width="80" height="40" as="geometry" />
        </mxCell>
        <mxCell id="ro3Qv43nntxOIZV2XcsF-3" value="" style="endArrow=none;html=1;rounded=0;entryX=0.5;entryY=1;entryDx=0;entryDy=0;exitX=1;exitY=0.5;exitDx=0;exitDy=0;" edge="1" parent="1" source="UXuDMvFJDcri6SYYM4VH-36" target="ro3Qv43nntxOIZV2XcsF-1">
          <mxGeometry relative="1" as="geometry">
            <mxPoint x="682.5" y="255" as="sourcePoint" />
            <mxPoint x="642.5" y="205" as="targetPoint" />
          </mxGeometry>
        </mxCell>
        <mxCell id="ro3Qv43nntxOIZV2XcsF-4" value="Distance from Earth&lt;br&gt;(light-years)" style="ellipse;whiteSpace=wrap;html=1;spacing=0;fontSize=8;" vertex="1" parent="1">
          <mxGeometry x="410" y="170" width="80" height="40" as="geometry" />
        </mxCell>
        <mxCell id="ro3Qv43nntxOIZV2XcsF-7" value="" style="endArrow=none;html=1;rounded=0;entryX=1;entryY=1;entryDx=0;entryDy=0;exitX=0;exitY=0.5;exitDx=0;exitDy=0;" edge="1" parent="1" source="UXuDMvFJDcri6SYYM4VH-36" target="ro3Qv43nntxOIZV2XcsF-4">
          <mxGeometry relative="1" as="geometry">
            <mxPoint x="643" y="240" as="sourcePoint" />
            <mxPoint x="705" y="210" as="targetPoint" />
          </mxGeometry>
        </mxCell>
      </root>
    </mxGraphModel>
  </diagram>
</mxfile>
